<svg xmlns="http://www.w3.org/2000/svg" viewBox="0 0 512 512">
  <defs>
    <radialGradient id="sunGradient" cx="50%" cy="50%">
      <stop offset="0%" style="stop-color:#FFD700;stop-opacity:1" />
      <stop offset="100%" style="stop-color:#FFA500;stop-opacity:1" />
    </radialGradient>
    <radialGradient id="spaceGradient" cx="50%" cy="50%">
      <stop offset="0%" style="stop-color:#1a1f4d;stop-opacity:1" />
      <stop offset="100%" style="stop-color:#0a0e27;stop-opacity:1" />
    </radialGradient>
  </defs>

  <!-- Fundo espacial -->
  <rect width="512" height="512" fill="url(#spaceGradient)" rx="80"/>

  <!-- Estrelas -->
  <circle cx="100" cy="80" r="2" fill="white" opacity="0.8"/>
  <circle cx="450" cy="120" r="2" fill="white" opacity="0.8"/>
  <circle cx="420" cy="450" r="2" fill="white" opacity="0.8"/>
  <circle cx="80" cy="420" r="2" fill="white" opacity="0.8"/>
  <circle cx="200" cy="50" r="1.5" fill="white" opacity="0.6"/>
  <circle cx="350" cy="80" r="1.5" fill="white" opacity="0.6"/>
  <circle cx="150" cy="450" r="1.5" fill="white" opacity="0.6"/>
  <circle cx="380" cy="350" r="1.5" fill="white" opacity="0.6"/>

  <!-- Sol central -->
  <circle cx="256" cy="256" r="70" fill="url(#sunGradient)">
    <animate attributeName="r" values="70;75;70" dur="2s" repeatCount="indefinite"/>
  </circle>

  <!-- Órbitas -->
  <circle cx="256" cy="256" r="110" fill="none" stroke="rgba(255,255,255,0.2)" stroke-width="2" stroke-dasharray="5,5"/>
  <circle cx="256" cy="256" r="150" fill="none" stroke="rgba(255,255,255,0.2)" stroke-width="2" stroke-dasharray="5,5"/>
  <circle cx="256" cy="256" r="190" fill="none" stroke="rgba(255,255,255,0.2)" stroke-width="2" stroke-dasharray="5,5"/>

  <!-- Planetas -->
  <!-- Mercúrio -->
  <circle cx="256" cy="146" r="8" fill="#969696"/>

  <!-- Vênus -->
  <circle cx="362" cy="256" r="12" fill="#ffa64d"/>

  <!-- Terra -->
  <circle cx="256" cy="366" r="14" fill="#4d94ff"/>

  <!-- Marte -->
  <circle cx="150" cy="256" r="10" fill="#ff6b6b"/>

  <!-- Júpiter (maior) -->
  <circle cx="310" cy="180" r="18" fill="#ffb366"/>

  <!-- Saturno com anéis -->
  <ellipse cx="200" cy="330" rx="28" ry="8" fill="rgba(244,228,166,0.5)"/>
  <circle cx="200" cy="330" r="16" fill="#f4e4a6"/>

  <!-- Urano -->
  <circle cx="340" cy="340" r="12" fill="#7cb3d9"/>

  <!-- Netuno -->
  <circle cx="180" cy="180" r="12" fill="#4a6fa5"/>
</svg>
